<mxfile host="65bd71144e">
    <diagram id="wJVfLP4UzBCjrRszMt_y" name="第 1 页">
        <mxGraphModel dx="1895" dy="813" grid="1" gridSize="10" guides="1" tooltips="1" connect="1" arrows="1" fold="1" page="1" pageScale="1" pageWidth="827" pageHeight="1169" math="0" shadow="0">
            <root>
                <mxCell id="0"/>
                <mxCell id="1" parent="0"/>
                <mxCell id="2" value="User" style="ellipse;whiteSpace=wrap;html=1;aspect=fixed;" parent="1" vertex="1">
                    <mxGeometry x="310" y="200" width="50" height="50" as="geometry"/>
                </mxCell>
                <mxCell id="3" value="" style="endArrow=classic;html=1;" parent="1" target="4" edge="1">
                    <mxGeometry width="50" height="50" relative="1" as="geometry">
                        <mxPoint x="310" y="224.5" as="sourcePoint"/>
                        <mxPoint x="250" y="225" as="targetPoint"/>
                    </mxGeometry>
                </mxCell>
                <mxCell id="4" value="registration" style="rounded=0;whiteSpace=wrap;html=1;" parent="1" vertex="1">
                    <mxGeometry x="170" y="205" width="90" height="40" as="geometry"/>
                </mxCell>
                <mxCell id="5" value="heavy name?" style="rhombus;whiteSpace=wrap;html=1;" parent="1" vertex="1">
                    <mxGeometry x="167.5" y="290" width="95" height="50" as="geometry"/>
                </mxCell>
                <mxCell id="7" value="" style="endArrow=classic;html=1;exitX=0;exitY=0.5;exitDx=0;exitDy=0;entryX=0;entryY=0.5;entryDx=0;entryDy=0;" parent="1" source="5" target="4" edge="1">
                    <mxGeometry relative="1" as="geometry">
                        <mxPoint x="70" y="450" as="sourcePoint"/>
                        <mxPoint x="120" y="150" as="targetPoint"/>
                        <Array as="points">
                            <mxPoint x="120" y="315"/>
                            <mxPoint x="120" y="225"/>
                        </Array>
                    </mxGeometry>
                </mxCell>
                <mxCell id="8" value="Y" style="edgeLabel;resizable=0;html=1;align=center;verticalAlign=middle;" parent="7" connectable="0" vertex="1">
                    <mxGeometry relative="1" as="geometry"/>
                </mxCell>
                <mxCell id="9" value="" style="endArrow=classic;html=1;exitX=0.5;exitY=1;exitDx=0;exitDy=0;entryX=0.5;entryY=0;entryDx=0;entryDy=0;" parent="1" source="4" target="5" edge="1">
                    <mxGeometry width="50" height="50" relative="1" as="geometry">
                        <mxPoint x="390" y="360" as="sourcePoint"/>
                        <mxPoint x="440" y="310" as="targetPoint"/>
                    </mxGeometry>
                </mxCell>
                <mxCell id="14" value="" style="endArrow=classic;html=1;exitX=0.5;exitY=1;exitDx=0;exitDy=0;entryX=0.5;entryY=0;entryDx=0;entryDy=0;" parent="1" source="5" target="16" edge="1">
                    <mxGeometry relative="1" as="geometry">
                        <mxPoint x="360" y="330" as="sourcePoint"/>
                        <mxPoint x="215" y="400" as="targetPoint"/>
                    </mxGeometry>
                </mxCell>
                <mxCell id="15" value="N" style="edgeLabel;resizable=0;html=1;align=center;verticalAlign=middle;" parent="14" connectable="0" vertex="1">
                    <mxGeometry relative="1" as="geometry"/>
                </mxCell>
                <mxCell id="16" value="User information sheet" style="rounded=0;whiteSpace=wrap;html=1;" parent="1" vertex="1">
                    <mxGeometry x="162.5" y="400" width="105" height="50" as="geometry"/>
                </mxCell>
                <mxCell id="17" value="" style="endArrow=classic;html=1;exitX=0.5;exitY=1;exitDx=0;exitDy=0;entryX=0.5;entryY=0;entryDx=0;entryDy=0;" parent="1" source="2" target="18" edge="1">
                    <mxGeometry width="50" height="50" relative="1" as="geometry">
                        <mxPoint x="390" y="350" as="sourcePoint"/>
                        <mxPoint x="335" y="310" as="targetPoint"/>
                    </mxGeometry>
                </mxCell>
                <mxCell id="18" value="Log in" style="rounded=0;whiteSpace=wrap;html=1;" parent="1" vertex="1">
                    <mxGeometry x="295" y="310" width="80" height="40" as="geometry"/>
                </mxCell>
                <mxCell id="19" value="" style="endArrow=classic;html=1;exitX=1;exitY=0.5;exitDx=0;exitDy=0;entryX=0;entryY=0.5;entryDx=0;entryDy=0;" parent="1" source="16" target="18" edge="1">
                    <mxGeometry width="50" height="50" relative="1" as="geometry">
                        <mxPoint x="390" y="350" as="sourcePoint"/>
                        <mxPoint x="280" y="280" as="targetPoint"/>
                        <Array as="points">
                            <mxPoint x="280" y="425"/>
                            <mxPoint x="280" y="330"/>
                        </Array>
                    </mxGeometry>
                </mxCell>
                <mxCell id="20" value="" style="endArrow=classic;html=1;exitX=0.5;exitY=1;exitDx=0;exitDy=0;" parent="1" source="18" target="21" edge="1">
                    <mxGeometry width="50" height="50" relative="1" as="geometry">
                        <mxPoint x="390" y="350" as="sourcePoint"/>
                        <mxPoint x="335" y="400" as="targetPoint"/>
                    </mxGeometry>
                </mxCell>
                <mxCell id="21" value="Success?" style="rhombus;whiteSpace=wrap;html=1;" parent="1" vertex="1">
                    <mxGeometry x="291.25" y="400" width="87.5" height="40" as="geometry"/>
                </mxCell>
                <mxCell id="23" value="" style="endArrow=classic;html=1;exitX=1;exitY=0.5;exitDx=0;exitDy=0;entryX=1;entryY=0.5;entryDx=0;entryDy=0;" parent="1" source="21" target="18" edge="1">
                    <mxGeometry relative="1" as="geometry">
                        <mxPoint x="360" y="320" as="sourcePoint"/>
                        <mxPoint x="420" y="260" as="targetPoint"/>
                        <Array as="points">
                            <mxPoint x="420" y="420"/>
                            <mxPoint x="420" y="330"/>
                        </Array>
                    </mxGeometry>
                </mxCell>
                <mxCell id="24" value="N" style="edgeLabel;resizable=0;html=1;align=center;verticalAlign=middle;" parent="23" connectable="0" vertex="1">
                    <mxGeometry relative="1" as="geometry"/>
                </mxCell>
                <mxCell id="25" value="" style="endArrow=classic;html=1;exitX=0.5;exitY=1;exitDx=0;exitDy=0;entryX=0;entryY=0.5;entryDx=0;entryDy=0;" parent="1" source="21" target="50" edge="1">
                    <mxGeometry relative="1" as="geometry">
                        <mxPoint x="360" y="320" as="sourcePoint"/>
                        <mxPoint x="550" y="480" as="targetPoint"/>
                        <Array as="points">
                            <mxPoint x="335" y="480"/>
                        </Array>
                    </mxGeometry>
                </mxCell>
                <mxCell id="26" value="Y" style="edgeLabel;resizable=0;html=1;align=center;verticalAlign=middle;" parent="25" connectable="0" vertex="1">
                    <mxGeometry relative="1" as="geometry"/>
                </mxCell>
                <mxCell id="27" value="" style="endArrow=classic;html=1;entryX=0;entryY=0.5;entryDx=0;entryDy=0;" parent="1" target="30" edge="1">
                    <mxGeometry width="50" height="50" relative="1" as="geometry">
                        <mxPoint x="480" y="480" as="sourcePoint"/>
                        <mxPoint x="560" y="330" as="targetPoint"/>
                        <Array as="points">
                            <mxPoint x="480" y="330"/>
                        </Array>
                    </mxGeometry>
                </mxCell>
                <mxCell id="30" value="Change self information" style="rounded=0;whiteSpace=wrap;html=1;" parent="1" vertex="1">
                    <mxGeometry x="570" y="302.5" width="110" height="55" as="geometry"/>
                </mxCell>
                <mxCell id="31" value="" style="endArrow=classic;html=1;exitX=1;exitY=0.25;exitDx=0;exitDy=0;entryX=0;entryY=0.25;entryDx=0;entryDy=0;" parent="1" source="30" target="34" edge="1">
                    <mxGeometry width="50" height="50" relative="1" as="geometry">
                        <mxPoint x="700" y="330" as="sourcePoint"/>
                        <mxPoint x="770" y="315" as="targetPoint"/>
                    </mxGeometry>
                </mxCell>
                <mxCell id="32" value="" style="endArrow=classic;html=1;entryX=1;entryY=0.75;entryDx=0;entryDy=0;exitX=0;exitY=0.75;exitDx=0;exitDy=0;" parent="1" source="34" target="30" edge="1">
                    <mxGeometry width="50" height="50" relative="1" as="geometry">
                        <mxPoint x="770" y="340" as="sourcePoint"/>
                        <mxPoint x="780" y="324" as="targetPoint"/>
                    </mxGeometry>
                </mxCell>
                <mxCell id="34" value="User inforamtion sheet" style="rounded=0;whiteSpace=wrap;html=1;" parent="1" vertex="1">
                    <mxGeometry x="770" y="302.5" width="110" height="55" as="geometry"/>
                </mxCell>
                <mxCell id="50" value="Has&amp;nbsp;portfolio?" style="rhombus;whiteSpace=wrap;html=1;" vertex="1" parent="1">
                    <mxGeometry x="580" y="450" width="90" height="60" as="geometry"/>
                </mxCell>
                <mxCell id="51" value="" style="endArrow=classic;html=1;exitX=1;exitY=0.5;exitDx=0;exitDy=0;entryX=0;entryY=0.5;entryDx=0;entryDy=0;" edge="1" parent="1" source="50" target="35">
                    <mxGeometry relative="1" as="geometry">
                        <mxPoint x="670" y="490" as="sourcePoint"/>
                        <mxPoint x="700" y="500" as="targetPoint"/>
                    </mxGeometry>
                </mxCell>
                <mxCell id="52" value="N" style="edgeLabel;resizable=0;html=1;align=center;verticalAlign=middle;" connectable="0" vertex="1" parent="51">
                    <mxGeometry relative="1" as="geometry"/>
                </mxCell>
                <mxCell id="57" value="Add/delete assets" style="rounded=0;whiteSpace=wrap;html=1;" vertex="1" parent="1">
                    <mxGeometry x="580" y="590" width="90" height="50" as="geometry"/>
                </mxCell>
                <mxCell id="53" value="" style="endArrow=classic;html=1;exitX=0.5;exitY=1;exitDx=0;exitDy=0;entryX=0.5;entryY=0;entryDx=0;entryDy=0;movable=0;resizable=0;rotatable=0;deletable=0;editable=0;connectable=0;" edge="1" parent="1" source="50" target="57">
                    <mxGeometry relative="1" as="geometry">
                        <mxPoint x="600" y="500" as="sourcePoint"/>
                        <mxPoint x="625" y="590" as="targetPoint"/>
                    </mxGeometry>
                </mxCell>
                <mxCell id="54" value="Y" style="edgeLabel;resizable=0;html=1;align=center;verticalAlign=middle;" connectable="0" vertex="1" parent="53">
                    <mxGeometry relative="1" as="geometry"/>
                </mxCell>
                <mxCell id="55" value="" style="endArrow=classic;html=1;entryX=0.5;entryY=1;entryDx=0;entryDy=0;movable=0;resizable=0;rotatable=0;deletable=0;editable=0;connectable=0;" edge="1" parent="1" target="35">
                    <mxGeometry width="50" height="50" relative="1" as="geometry">
                        <mxPoint x="625" y="560" as="sourcePoint"/>
                        <mxPoint x="802" y="510" as="targetPoint"/>
                        <Array as="points">
                            <mxPoint x="797" y="560"/>
                        </Array>
                    </mxGeometry>
                </mxCell>
                <mxCell id="59" value="Assets sheet" style="rounded=0;whiteSpace=wrap;html=1;" vertex="1" parent="1">
                    <mxGeometry x="580" y="690" width="90" height="50" as="geometry"/>
                </mxCell>
                <mxCell id="60" value="" style="endArrow=classic;html=1;exitX=0.75;exitY=1;exitDx=0;exitDy=0;entryX=0.75;entryY=0;entryDx=0;entryDy=0;" edge="1" parent="1" source="57" target="59">
                    <mxGeometry width="50" height="50" relative="1" as="geometry">
                        <mxPoint x="710" y="710" as="sourcePoint"/>
                        <mxPoint x="648" y="690" as="targetPoint"/>
                    </mxGeometry>
                </mxCell>
                <mxCell id="61" value="" style="endArrow=classic;html=1;entryX=0.25;entryY=1;entryDx=0;entryDy=0;exitX=0.25;exitY=0;exitDx=0;exitDy=0;" edge="1" parent="1" source="59" target="57">
                    <mxGeometry width="50" height="50" relative="1" as="geometry">
                        <mxPoint x="603" y="690" as="sourcePoint"/>
                        <mxPoint x="670" y="810" as="targetPoint"/>
                    </mxGeometry>
                </mxCell>
                <mxCell id="62" value="" style="endArrow=classic;html=1;entryX=0.5;entryY=0;entryDx=0;entryDy=0;" edge="1" parent="1" target="63">
                    <mxGeometry width="50" height="50" relative="1" as="geometry">
                        <mxPoint x="624" y="570" as="sourcePoint"/>
                        <mxPoint x="340" y="590" as="targetPoint"/>
                        <Array as="points">
                            <mxPoint x="338" y="570"/>
                        </Array>
                    </mxGeometry>
                </mxCell>
                <mxCell id="63" value="Sell/buy assets" style="rounded=0;whiteSpace=wrap;html=1;" vertex="1" parent="1">
                    <mxGeometry x="295" y="590" width="86" height="40" as="geometry"/>
                </mxCell>
                <mxCell id="64" value="Confirmation" style="rhombus;whiteSpace=wrap;html=1;" vertex="1" parent="1">
                    <mxGeometry x="298" y="860" width="81.37" height="70" as="geometry"/>
                </mxCell>
                <mxCell id="66" value="" style="endArrow=classic;html=1;exitX=1;exitY=0.5;exitDx=0;exitDy=0;entryX=0;entryY=0.5;entryDx=0;entryDy=0;" edge="1" parent="1" source="64" target="77">
                    <mxGeometry width="50" height="50" relative="1" as="geometry">
                        <mxPoint x="570" y="710" as="sourcePoint"/>
                        <mxPoint x="460" y="895" as="targetPoint"/>
                    </mxGeometry>
                </mxCell>
                <mxCell id="67" value="Y" style="edgeLabel;html=1;align=center;verticalAlign=middle;resizable=0;points=[];" vertex="1" connectable="0" parent="66">
                    <mxGeometry x="0.011" y="-2" relative="1" as="geometry">
                        <mxPoint as="offset"/>
                    </mxGeometry>
                </mxCell>
                <mxCell id="70" value="" style="endArrow=classic;html=1;exitX=0.5;exitY=1;exitDx=0;exitDy=0;" edge="1" parent="1" source="63" target="71">
                    <mxGeometry width="50" height="50" relative="1" as="geometry">
                        <mxPoint x="680" y="780" as="sourcePoint"/>
                        <mxPoint x="338" y="690" as="targetPoint"/>
                    </mxGeometry>
                </mxCell>
                <mxCell id="71" value="Select assect" style="rounded=0;whiteSpace=wrap;html=1;" vertex="1" parent="1">
                    <mxGeometry x="288" y="690" width="102" height="45" as="geometry"/>
                </mxCell>
                <mxCell id="72" value="" style="endArrow=classic;html=1;exitX=0.5;exitY=1;exitDx=0;exitDy=0;entryX=0.5;entryY=0;entryDx=0;entryDy=0;" edge="1" parent="1" source="71" target="73">
                    <mxGeometry width="50" height="50" relative="1" as="geometry">
                        <mxPoint x="540" y="800" as="sourcePoint"/>
                        <mxPoint x="340" y="800" as="targetPoint"/>
                    </mxGeometry>
                </mxCell>
                <mxCell id="74" value="" style="edgeStyle=none;html=1;" edge="1" parent="1" source="73" target="71">
                    <mxGeometry relative="1" as="geometry"/>
                </mxCell>
                <mxCell id="73" value="Select number" style="rounded=0;whiteSpace=wrap;html=1;" vertex="1" parent="1">
                    <mxGeometry x="298" y="800" width="82" height="30" as="geometry"/>
                </mxCell>
                <mxCell id="75" value="" style="endArrow=classic;html=1;exitX=0.5;exitY=1;exitDx=0;exitDy=0;entryX=0.5;entryY=0;entryDx=0;entryDy=0;" edge="1" parent="1" source="73" target="64">
                    <mxGeometry width="50" height="50" relative="1" as="geometry">
                        <mxPoint x="440" y="800" as="sourcePoint"/>
                        <mxPoint x="490" y="750" as="targetPoint"/>
                    </mxGeometry>
                </mxCell>
                <mxCell id="77" value="Adequacy of balance?" style="rhombus;whiteSpace=wrap;html=1;" vertex="1" parent="1">
                    <mxGeometry x="470" y="862.5" width="100" height="65" as="geometry"/>
                </mxCell>
                <mxCell id="78" value="" style="endArrow=classic;html=1;exitX=0;exitY=0.5;exitDx=0;exitDy=0;entryX=0;entryY=0.5;entryDx=0;entryDy=0;" edge="1" parent="1" source="64" target="73">
                    <mxGeometry width="50" height="50" relative="1" as="geometry">
                        <mxPoint x="290" y="840" as="sourcePoint"/>
                        <mxPoint x="270" y="810" as="targetPoint"/>
                        <Array as="points">
                            <mxPoint x="270" y="895"/>
                            <mxPoint x="270" y="815"/>
                        </Array>
                    </mxGeometry>
                </mxCell>
                <mxCell id="80" value="N" style="edgeLabel;html=1;align=center;verticalAlign=middle;resizable=0;points=[];" vertex="1" connectable="0" parent="78">
                    <mxGeometry x="0.0525" relative="1" as="geometry">
                        <mxPoint as="offset"/>
                    </mxGeometry>
                </mxCell>
                <mxCell id="81" value="" style="endArrow=classic;html=1;exitX=0.5;exitY=1;exitDx=0;exitDy=0;entryX=0.5;entryY=0;entryDx=0;entryDy=0;" edge="1" parent="1" source="77" target="83">
                    <mxGeometry width="50" height="50" relative="1" as="geometry">
                        <mxPoint x="460" y="890" as="sourcePoint"/>
                        <mxPoint x="520" y="980" as="targetPoint"/>
                    </mxGeometry>
                </mxCell>
                <mxCell id="82" value="N" style="edgeLabel;html=1;align=center;verticalAlign=middle;resizable=0;points=[];" vertex="1" connectable="0" parent="81">
                    <mxGeometry x="-0.3552" y="-1" relative="1" as="geometry">
                        <mxPoint as="offset"/>
                    </mxGeometry>
                </mxCell>
                <mxCell id="83" value="Remainder" style="rounded=0;whiteSpace=wrap;html=1;" vertex="1" parent="1">
                    <mxGeometry x="477.5" y="970" width="85" height="30" as="geometry"/>
                </mxCell>
                <mxCell id="84" value="" style="endArrow=classic;html=1;exitX=0.5;exitY=1;exitDx=0;exitDy=0;entryX=0.5;entryY=0;entryDx=0;entryDy=0;" edge="1" parent="1" source="83" target="85">
                    <mxGeometry width="50" height="50" relative="1" as="geometry">
                        <mxPoint x="460" y="960" as="sourcePoint"/>
                        <mxPoint x="520" y="1030" as="targetPoint"/>
                    </mxGeometry>
                </mxCell>
                <mxCell id="85" value="User" style="ellipse;whiteSpace=wrap;html=1;aspect=fixed;" vertex="1" parent="1">
                    <mxGeometry x="500" y="1030" width="40" height="40" as="geometry"/>
                </mxCell>
                <mxCell id="86" value="" style="endArrow=classic;html=1;exitX=0.5;exitY=0;exitDx=0;exitDy=0;entryX=0;entryY=0.5;entryDx=0;entryDy=0;" edge="1" parent="1" source="77" target="59">
                    <mxGeometry width="50" height="50" relative="1" as="geometry">
                        <mxPoint x="440" y="780" as="sourcePoint"/>
                        <mxPoint x="520" y="680" as="targetPoint"/>
                        <Array as="points">
                            <mxPoint x="520" y="715"/>
                        </Array>
                    </mxGeometry>
                </mxCell>
                <mxCell id="87" value="Y" style="edgeLabel;html=1;align=center;verticalAlign=middle;resizable=0;points=[];" vertex="1" connectable="0" parent="86">
                    <mxGeometry x="0.0273" y="-2" relative="1" as="geometry">
                        <mxPoint as="offset"/>
                    </mxGeometry>
                </mxCell>
                <mxCell id="90" value="" style="endArrow=classic;html=1;" edge="1" parent="1" target="91">
                    <mxGeometry width="50" height="50" relative="1" as="geometry">
                        <mxPoint x="620" y="570" as="sourcePoint"/>
                        <mxPoint x="860" y="590" as="targetPoint"/>
                        <Array as="points">
                            <mxPoint x="855" y="570"/>
                        </Array>
                    </mxGeometry>
                </mxCell>
                <mxCell id="91" value="Analysis portfolios" style="rounded=0;whiteSpace=wrap;html=1;" vertex="1" parent="1">
                    <mxGeometry x="800" y="590" width="110" height="40" as="geometry"/>
                </mxCell>
                <mxCell id="92" value="Demonstrate overall value over time" style="rounded=0;whiteSpace=wrap;html=1;" vertex="1" parent="1">
                    <mxGeometry x="707" y="680" width="120" height="60" as="geometry"/>
                </mxCell>
                <mxCell id="93" value="" style="endArrow=classic;html=1;exitX=0.5;exitY=1;exitDx=0;exitDy=0;entryX=0.5;entryY=0;entryDx=0;entryDy=0;" edge="1" parent="1" source="91" target="92">
                    <mxGeometry width="50" height="50" relative="1" as="geometry">
                        <mxPoint x="690" y="730" as="sourcePoint"/>
                        <mxPoint x="740" y="680" as="targetPoint"/>
                        <Array as="points">
                            <mxPoint x="855" y="660"/>
                            <mxPoint x="767" y="660"/>
                        </Array>
                    </mxGeometry>
                </mxCell>
                <mxCell id="95" value="" style="endArrow=classic;html=1;entryX=0.5;entryY=0;entryDx=0;entryDy=0;" edge="1" parent="1" target="96">
                    <mxGeometry width="50" height="50" relative="1" as="geometry">
                        <mxPoint x="855" y="630" as="sourcePoint"/>
                        <mxPoint x="950" y="680" as="targetPoint"/>
                        <Array as="points">
                            <mxPoint x="855" y="660"/>
                            <mxPoint x="950" y="660"/>
                        </Array>
                    </mxGeometry>
                </mxCell>
                <mxCell id="96" value="Add/Delete Events" style="rounded=0;whiteSpace=wrap;html=1;" vertex="1" parent="1">
                    <mxGeometry x="890" y="680" width="120" height="60" as="geometry"/>
                </mxCell>
                <mxCell id="35" value="Create new portfolio" style="rounded=0;whiteSpace=wrap;html=1;" parent="1" vertex="1">
                    <mxGeometry x="742" y="450" width="110" height="60" as="geometry"/>
                </mxCell>
                <mxCell id="37" value="Portfolio information" style="rounded=0;whiteSpace=wrap;html=1;" parent="1" vertex="1">
                    <mxGeometry x="942" y="450" width="110" height="60" as="geometry"/>
                </mxCell>
                <mxCell id="38" value="" style="endArrow=classic;html=1;exitX=1;exitY=0.5;exitDx=0;exitDy=0;entryX=0;entryY=0.5;entryDx=0;entryDy=0;" edge="1" parent="1" source="35" target="37">
                    <mxGeometry width="50" height="50" relative="1" as="geometry">
                        <mxPoint x="872" y="500" as="sourcePoint"/>
                        <mxPoint x="962" y="500" as="targetPoint"/>
                    </mxGeometry>
                </mxCell>
                <mxCell id="39" value="" style="endArrow=classic;html=1;entryX=0;entryY=0.5;entryDx=0;entryDy=0;exitX=1;exitY=0.5;exitDx=0;exitDy=0;" edge="1" parent="1" source="37" target="41">
                    <mxGeometry width="50" height="50" relative="1" as="geometry">
                        <mxPoint x="1062" y="470" as="sourcePoint"/>
                        <mxPoint x="1142" y="480" as="targetPoint"/>
                    </mxGeometry>
                </mxCell>
                <mxCell id="41" value="Change/delete portfolio information" style="rounded=0;whiteSpace=wrap;html=1;" vertex="1" parent="1">
                    <mxGeometry x="1152" y="450" width="120" height="60" as="geometry"/>
                </mxCell>
                <mxCell id="42" value="Confirmation" style="rhombus;whiteSpace=wrap;html=1;" vertex="1" parent="1">
                    <mxGeometry x="1342" y="445" width="100" height="70" as="geometry"/>
                </mxCell>
                <mxCell id="43" value="" style="endArrow=classic;html=1;exitX=1;exitY=0.5;exitDx=0;exitDy=0;entryX=0;entryY=0.5;entryDx=0;entryDy=0;" edge="1" parent="1" source="41" target="42">
                    <mxGeometry width="50" height="50" relative="1" as="geometry">
                        <mxPoint x="1242" y="360" as="sourcePoint"/>
                        <mxPoint x="1292" y="310" as="targetPoint"/>
                    </mxGeometry>
                </mxCell>
                <mxCell id="44" value="" style="endArrow=classic;html=1;exitX=0.5;exitY=0;exitDx=0;exitDy=0;entryX=0.5;entryY=0;entryDx=0;entryDy=0;" edge="1" parent="1" source="42" target="41">
                    <mxGeometry relative="1" as="geometry">
                        <mxPoint x="1222" y="380" as="sourcePoint"/>
                        <mxPoint x="1122" y="380" as="targetPoint"/>
                        <Array as="points">
                            <mxPoint x="1392" y="380"/>
                            <mxPoint x="1212" y="380"/>
                        </Array>
                    </mxGeometry>
                </mxCell>
                <mxCell id="45" value="N" style="edgeLabel;resizable=0;html=1;align=center;verticalAlign=middle;" connectable="0" vertex="1" parent="44">
                    <mxGeometry relative="1" as="geometry"/>
                </mxCell>
                <mxCell id="46" value="" style="endArrow=classic;html=1;exitX=1;exitY=0.5;exitDx=0;exitDy=0;entryX=0.5;entryY=1;entryDx=0;entryDy=0;" edge="1" parent="1" source="42" target="37">
                    <mxGeometry relative="1" as="geometry">
                        <mxPoint x="1192" y="480" as="sourcePoint"/>
                        <mxPoint x="962" y="560" as="targetPoint"/>
                        <Array as="points">
                            <mxPoint x="1492" y="480"/>
                            <mxPoint x="1492" y="560"/>
                            <mxPoint x="997" y="560"/>
                        </Array>
                    </mxGeometry>
                </mxCell>
                <mxCell id="47" value="Y" style="edgeLabel;resizable=0;html=1;align=center;verticalAlign=middle;" connectable="0" vertex="1" parent="46">
                    <mxGeometry relative="1" as="geometry"/>
                </mxCell>
                <mxCell id="97" value="" style="endArrow=classic;html=1;exitX=0.25;exitY=0;exitDx=0;exitDy=0;entryX=0.25;entryY=1;entryDx=0;entryDy=0;" edge="1" parent="1" source="37" target="99">
                    <mxGeometry width="50" height="50" relative="1" as="geometry">
                        <mxPoint x="1120" y="480" as="sourcePoint"/>
                        <mxPoint x="970" y="370" as="targetPoint"/>
                    </mxGeometry>
                </mxCell>
                <mxCell id="98" value="" style="endArrow=classic;html=1;entryX=0.75;entryY=0;entryDx=0;entryDy=0;exitX=0.75;exitY=1;exitDx=0;exitDy=0;" edge="1" parent="1" source="99" target="37">
                    <mxGeometry width="50" height="50" relative="1" as="geometry">
                        <mxPoint x="1025" y="370" as="sourcePoint"/>
                        <mxPoint x="1170" y="430" as="targetPoint"/>
                    </mxGeometry>
                </mxCell>
                <mxCell id="99" value="Portfolio sheet" style="rounded=0;whiteSpace=wrap;html=1;" vertex="1" parent="1">
                    <mxGeometry x="943" y="350" width="108" height="50" as="geometry"/>
                </mxCell>
                <mxCell id="100" value="" style="endArrow=classic;html=1;exitX=1;exitY=0.25;exitDx=0;exitDy=0;entryX=0;entryY=0.25;entryDx=0;entryDy=0;" edge="1" parent="1" source="96" target="102">
                    <mxGeometry width="50" height="50" relative="1" as="geometry">
                        <mxPoint x="970" y="680" as="sourcePoint"/>
                        <mxPoint x="1070" y="695" as="targetPoint"/>
                    </mxGeometry>
                </mxCell>
                <mxCell id="101" value="" style="endArrow=classic;html=1;entryX=1;entryY=0.75;entryDx=0;entryDy=0;exitX=0;exitY=0.75;exitDx=0;exitDy=0;" edge="1" parent="1" source="102" target="96">
                    <mxGeometry width="50" height="50" relative="1" as="geometry">
                        <mxPoint x="1070" y="725" as="sourcePoint"/>
                        <mxPoint x="1160" y="780" as="targetPoint"/>
                    </mxGeometry>
                </mxCell>
                <mxCell id="102" value="Events sheet" style="rounded=0;whiteSpace=wrap;html=1;" vertex="1" parent="1">
                    <mxGeometry x="1080" y="680" width="120" height="60" as="geometry"/>
                </mxCell>
                <mxCell id="103" value="" style="endArrow=classic;html=1;exitX=0.5;exitY=1;exitDx=0;exitDy=0;entryX=0.5;entryY=0;entryDx=0;entryDy=0;" edge="1" parent="1" source="92" target="104">
                    <mxGeometry width="50" height="50" relative="1" as="geometry">
                        <mxPoint x="780" y="720" as="sourcePoint"/>
                        <mxPoint x="680" y="790" as="targetPoint"/>
                        <Array as="points">
                            <mxPoint x="767" y="770"/>
                            <mxPoint x="674" y="770"/>
                        </Array>
                    </mxGeometry>
                </mxCell>
                <mxCell id="104" value="Select time period" style="rounded=0;whiteSpace=wrap;html=1;" vertex="1" parent="1">
                    <mxGeometry x="620" y="800" width="108" height="37.5" as="geometry"/>
                </mxCell>
                <mxCell id="105" value="Select portfolios" style="rounded=0;whiteSpace=wrap;html=1;" vertex="1" parent="1">
                    <mxGeometry x="820" y="800" width="108" height="37.5" as="geometry"/>
                </mxCell>
                <mxCell id="106" value="" style="endArrow=classic;html=1;exitX=0.5;exitY=1;exitDx=0;exitDy=0;entryX=0.5;entryY=0;entryDx=0;entryDy=0;" edge="1" parent="1" source="92" target="105">
                    <mxGeometry width="50" height="50" relative="1" as="geometry">
                        <mxPoint x="780" y="720" as="sourcePoint"/>
                        <mxPoint x="850" y="770" as="targetPoint"/>
                        <Array as="points">
                            <mxPoint x="767" y="770"/>
                            <mxPoint x="874" y="770"/>
                        </Array>
                    </mxGeometry>
                </mxCell>
                <mxCell id="107" value="" style="endArrow=classic;html=1;" edge="1" parent="1">
                    <mxGeometry width="50" height="50" relative="1" as="geometry">
                        <mxPoint x="470" y="570" as="sourcePoint"/>
                        <mxPoint y="590" as="targetPoint"/>
                        <Array as="points">
                            <mxPoint y="570"/>
                        </Array>
                    </mxGeometry>
                </mxCell>
                <mxCell id="108" value="Clone portfolio" style="rounded=0;whiteSpace=wrap;html=1;" vertex="1" parent="1">
                    <mxGeometry x="-50" y="590" width="110" height="30" as="geometry"/>
                </mxCell>
                <mxCell id="109" value="Confirmation" style="rhombus;whiteSpace=wrap;html=1;" vertex="1" parent="1">
                    <mxGeometry x="-35.69" y="665" width="81.37" height="70" as="geometry"/>
                </mxCell>
                <mxCell id="110" value="" style="endArrow=classic;html=1;exitX=0.5;exitY=1;exitDx=0;exitDy=0;entryX=0.5;entryY=0;entryDx=0;entryDy=0;" edge="1" parent="1" source="108" target="109">
                    <mxGeometry width="50" height="50" relative="1" as="geometry">
                        <mxPoint x="420" y="690" as="sourcePoint"/>
                        <mxPoint x="470" y="640" as="targetPoint"/>
                    </mxGeometry>
                </mxCell>
                <mxCell id="111" value="" style="endArrow=classic;html=1;exitX=1;exitY=0.5;exitDx=0;exitDy=0;entryX=1;entryY=0.5;entryDx=0;entryDy=0;" edge="1" parent="1" source="109" target="108">
                    <mxGeometry width="50" height="50" relative="1" as="geometry">
                        <mxPoint x="370" y="730" as="sourcePoint"/>
                        <mxPoint x="110" y="600" as="targetPoint"/>
                        <Array as="points">
                            <mxPoint x="110" y="700"/>
                            <mxPoint x="110" y="605"/>
                        </Array>
                    </mxGeometry>
                </mxCell>
                <mxCell id="112" value="N" style="edgeLabel;html=1;align=center;verticalAlign=middle;resizable=0;points=[];" vertex="1" connectable="0" parent="111">
                    <mxGeometry x="0.0851" y="3" relative="1" as="geometry">
                        <mxPoint x="1" as="offset"/>
                    </mxGeometry>
                </mxCell>
                <mxCell id="113" value="" style="endArrow=classic;html=1;exitX=0.5;exitY=1;exitDx=0;exitDy=0;entryX=0.5;entryY=0;entryDx=0;entryDy=0;" edge="1" parent="1" source="109" target="115">
                    <mxGeometry width="50" height="50" relative="1" as="geometry">
                        <mxPoint x="370" y="730" as="sourcePoint"/>
                        <mxPoint x="5" y="790" as="targetPoint"/>
                    </mxGeometry>
                </mxCell>
                <mxCell id="114" value="Y" style="edgeLabel;html=1;align=center;verticalAlign=middle;resizable=0;points=[];" vertex="1" connectable="0" parent="113">
                    <mxGeometry x="-0.5118" y="-1" relative="1" as="geometry">
                        <mxPoint y="-1" as="offset"/>
                    </mxGeometry>
                </mxCell>
                <mxCell id="115" value="Portfolio sheet" style="rounded=0;whiteSpace=wrap;html=1;" vertex="1" parent="1">
                    <mxGeometry x="-50" y="780" width="108" height="50" as="geometry"/>
                </mxCell>
            </root>
        </mxGraphModel>
    </diagram>
</mxfile>